<?xml version="1.0" encoding="UTF-8"?>
<!-- Generator: https://ezgif.com/png-to-svg -->
<svg version="1.1" xmlns="http://www.w3.org/2000/svg" width="432" height="432">
<path d="M0 0 C3.24 2.69 4.59 4.28 5.55 8.34 C5.94 13.34 5.18 16.47 2 20.38 C-1.6 24.01 -5.31 26.02 -10 28 C-8.95 28.56 -7.9 29.11 -6.81 29.69 C-3.26 31.7 -0.75 34 2 37 C2.09 36.26 2.17 35.53 2.26 34.77 C3.17 28.49 3.84 24.87 9 21 C12.45 19.27 16.22 19.64 20 20 C23.19 21.29 24.51 22.21 26.31 25.12 C27.95 31.97 27.53 37.79 24 44 C21.22 46.93 19.41 47.89 15.5 48.94 C11.59 49.01 10.07 48.34 7 46 C6.67 45.67 6.34 45.34 6 45 C6.03 46.02 6.06 47.05 6.1 48.1 C6.2 51.92 6.27 55.75 6.33 59.57 C6.36 61.22 6.4 62.87 6.45 64.52 C6.93 80 6.93 80 3.18 84.5 C-1.82 89.01 -7.71 90.87 -14.38 90.68 C-20.24 89.16 -24.73 84 -28.29 79.29 C-32.31 74.12 -36.59 71.84 -42.56 69.31 C-54.89 63.95 -54.89 63.95 -58.88 58.38 C-60.75 52.75 -60.22 47.51 -57.62 42.19 C-54.41 39.51 -51.18 38.08 -47.34 36.46 C-44.84 35.37 -42.43 34.23 -40 32.98 C-38.96 32.44 -38.96 32.44 -37.9 31.9 C-36.54 31.19 -35.19 30.48 -33.83 29.77 C-29.29 27.43 -24.99 26.08 -20 25 C-20.77 24.04 -20.77 24.04 -21.56 23.06 C-23.57 18.78 -23.16 15.52 -22 11 C-19.48 5.96 -15.89 2.69 -11 0 C-7.04 -1.26 -4.05 -1.06 0 0 Z M3 39 C4 41 4 41 4 41 Z M4 42 C5 44 5 44 5 44 Z " fill="#FEFCFD" transform="translate(274,211)"/>
<path d="M0 0 C1.73 0.98 3.44 2.01 5.12 3.06 C5.67 3.4 6.22 3.74 6.79 4.09 C10.96 6.66 15.05 9.34 19.12 12.06 C19.96 12.6 20.8 13.14 21.66 13.7 C26.45 16.97 29.6 20.35 31.12 26.06 C31.63 30.4 31.03 33.62 28.7 37.34 C25.21 41.63 22.58 43.71 17.12 45.06 C14.69 45.25 12.25 45.37 9.81 45.44 C1.43 45.91 -3.92 48.04 -10.75 52.69 C-15.98 56.04 -22.02 57.69 -28.21 56.68 C-32.73 55.21 -35.32 53.16 -37.88 49.06 C-40.49 41.21 -38.3 34.33 -35.95 26.7 C-34.91 23.19 -34.16 19.71 -33.44 16.12 C-31.94 9.62 -30.23 5.48 -24.75 1.54 C-16.87 -3.02 -8.35 -3.93 0 0 Z " fill="#FEFDFE" transform="translate(190.875,172.9375)"/>
<path d="M0 0 C3.94 2.25 6.41 4.6 8.18 8.8 C9.85 15.28 9.93 22.21 7.81 28.56 C5 32.34 2.82 34.69 -1.94 35.5 C-5.78 34.87 -7.99 33.43 -11 31 C-11 30.34 -11 29.68 -11 29 C-11.66 29 -12.32 29 -13 29 C-16.01 22.98 -18.29 16.44 -16.34 9.72 C-13.11 2.69 -8.23 -2.06 0 0 Z " fill="#FDF7FC" transform="translate(164,138)"/>
<path d="M0 0 C4.63 4.13 6.48 8.43 7.26 14.57 C7.5 21.1 6.83 25.32 2.88 30.56 C-0.44 32.22 -3.57 32.3 -7.12 31.56 C-12.14 28.8 -15.32 25.13 -17.25 19.75 C-18.52 14.38 -18.01 9.72 -16.12 4.56 C-12.12 -1.77 -6.86 -3.16 0 0 Z " fill="#FEFCFD" transform="translate(195.125,139.4375)"/>
<path d="M0 0 C4.81 3.94 7.66 7.79 8.32 14.06 C8.65 23.85 8.65 23.85 6.12 27.75 C3.33 30.71 2.48 30.93 -1.62 31.5 C-6.39 31.42 -8.97 29.37 -12.3 26.13 C-16.52 20.85 -17.64 14.65 -17 8 C-15.85 3.51 -13.79 1.59 -10 -1 C-5.94 -2.35 -3.97 -1.51 0 0 Z " fill="#FEFCFD" transform="translate(146,167)"/>
<path d="M0 0 C3.5 2.11 4.71 3.12 6 7 C6.51 13.13 5.95 17.17 2 22 C-2.28 25.7 -6.38 27.28 -12 27 C-15.53 25.82 -17.35 24.97 -19.44 21.88 C-20.52 16.35 -19.87 11.7 -17.31 6.69 C-12.31 0.87 -7.58 -1.41 0 0 Z " fill="#FEFCFD" transform="translate(240,214)"/>
<path d="M0 0 C2.38 0.36 2.38 0.36 4.95 2.17 C8.06 6.91 7.86 11.88 7.38 17.36 C5.85 21.49 4.02 24.8 0.38 27.36 C-4.64 28.16 -4.64 28.16 -7.62 27.36 C-10.71 24.94 -12.38 22.08 -13.62 18.36 C-14.05 11.85 -13.45 7.01 -9.32 1.69 C-6.43 -0.56 -3.53 -0.1 0 0 Z " fill="#FDF9FC" transform="translate(295.6171875,263.640625)"/>
<path d="M0 0 C4.36 2.28 6.09 5.3 7.55 9.85 C8.36 13.72 8.08 16.14 7 20 C4.56 22.86 2.75 24.58 -0.96 25.48 C-4.83 25.76 -7.31 25.16 -10.38 22.75 C-14.96 17.95 -15.58 14.18 -15.43 7.64 C-14.98 4.86 -14.57 3.75 -12.56 1.81 C-8.13 -0.44 -4.87 -0.95 0 0 Z " fill="#FEFAFD" transform="translate(218,157)"/>
<path d="M0 0 C0.5 0.99 0.5 0.99 1 2 C0.53 2.72 0.06 3.43 -0.43 4.17 C-2.42 7.76 -2.3 10.23 -2.19 14.31 C-2.16 15.57 -2.13 16.82 -2.11 18.11 C-2.05 19.54 -2.05 19.54 -2 21 C-1.34 21 -0.68 21 0 21 C0 21.66 0 22.32 0 23 C3.63 22.67 7.26 22.34 11 22 C8 24 8 24 6 25 C8.31 26.32 10.62 27.64 13 29 C12.01 29.5 12.01 29.5 11 30 C9.82 29.29 9.82 29.29 8.62 28.56 C-0.06 24.82 -8.72 27.12 -17.38 29.93 C-20.1 30.85 -20.1 30.85 -22 33 C-24.02 33.89 -24.02 33.89 -26.38 34.69 C-27.15 34.96 -27.92 35.23 -28.71 35.51 C-31.2 36.04 -32.62 35.81 -35 35 C-34.35 34.71 -33.69 34.42 -33.02 34.12 C-27.87 31.81 -22.82 29.41 -17.81 26.81 C-13.22 24.48 -9.05 22.97 -4 22 C-4.77 21.04 -4.77 21.04 -5.56 20.06 C-7.56 15.8 -7.19 12.5 -6 8 C-4.23 4.86 -2.53 2.53 0 0 Z " fill="#FBC7DD" transform="translate(258,214)"/>
<path d="M0 0 C0 0.99 0 1.98 0 3 C0.99 3.33 1.98 3.66 3 4 C3 8.95 3 13.9 3 19 C3.99 19 4.98 19 6 19 C6 19.99 6 20.98 6 22 C2.53 23.16 -0.36 23.07 -4 23 C-6.98 16.05 -7.97 11.09 -6.19 3.56 C-5.8 2.72 -5.4 1.87 -5 1 C-2 0 -2 0 0 0 Z " fill="#FDFCFD" transform="translate(292,266)"/>
<path d="M0 0 C0.66 0 1.32 0 2 0 C2.19 2.31 2.38 4.62 2.56 6.94 C2.67 8.23 2.77 9.51 2.88 10.84 C2.92 11.88 2.96 12.93 3 14 C2.67 14.33 2.34 14.66 2 15 C2.09 17.84 2.25 20.66 2.44 23.5 C2.58 26.13 2.72 28.75 2.86 31.38 C2.95 33.07 3.05 34.76 3.15 36.45 C3.97 50.89 3.97 50.89 0.44 55.38 C-5.12 60.23 -10.69 61.33 -17.86 61.4 C-18.57 61.27 -19.27 61.14 -20 61 C-20.66 60.01 -21.32 59.02 -22 58 C-20.88 58.02 -20.88 58.02 -19.73 58.04 C-18.75 58.04 -17.76 58.05 -16.75 58.06 C-15.78 58.07 -14.8 58.09 -13.8 58.1 C-11.3 58.01 -9.31 57.93 -7 57 C-6.67 56.01 -6.34 55.02 -6 54 C-3.03 53.5 -3.03 53.5 0 53 C0 35.51 0 18.02 0 0 Z " fill="#F9C7CF" transform="translate(277,240)"/>
<path d="M0 0 C4.36 2.28 6.09 5.3 7.55 9.85 C8.36 13.72 8.08 16.14 7 20 C4.56 22.86 2.75 24.58 -0.96 25.48 C-4.83 25.76 -7.31 25.16 -10.38 22.75 C-14.96 17.95 -15.58 14.18 -15.43 7.64 C-14.98 4.86 -14.57 3.75 -12.56 1.81 C-8.13 -0.44 -4.87 -0.95 0 0 Z M-10 4 C-10 4.66 -10 5.32 -10 6 C-10.99 6 -11.98 6 -13 6 C-13.48 12.7 -13.41 16.78 -9 22 C-7.97 23.25 -7.97 23.25 -5.79 23.13 C-4.89 23.13 -3.99 23.13 -3.06 23.12 C-2.17 23.13 -1.27 23.13 -0.35 23.13 C2.02 23.15 2.02 23.15 4 22 C4 21.01 4 20.02 4 19 C4.66 19 5.32 19 6 19 C6.44 11.71 6.44 11.71 4 5 C1.09 3.39 -0.48 4.12 -3.75 4.94 C-4.82 5.29 -5.9 5.64 -7 6 C-7 5.34 -7 4.68 -7 4 C-6.01 3.67 -5.02 3.34 -4 3 C-7.78 2.7 -7.78 2.7 -10 4 Z " fill="#FBC7F3" transform="translate(218,157)"/>
<path d="M0 0 C3.5 2.11 4.71 3.12 6 7 C6.51 13.13 5.95 17.17 2 22 C-2.28 25.7 -6.38 27.28 -12 27 C-15.53 25.82 -17.35 24.97 -19.44 21.88 C-20.23 17.84 -19.97 14 -19 10 C-18.34 9.34 -17.68 8.68 -17 8 C-17 12.62 -17 17.24 -17 22 C-16.34 22 -15.68 22 -15 22 C-14.67 22.66 -14.34 23.32 -14 24 C-10.37 24 -6.74 24 -3 24 C-3.33 23.01 -3.66 22.02 -4 21 C-2.68 21 -1.36 21 0 21 C0.33 19.35 0.66 17.7 1 16 C1.66 16 2.32 16 3 16 C3.33 12.37 3.66 8.74 4 5 C0.31 4.08 -2.97 3.7 -6.75 3.44 C-7.92 3.35 -9.09 3.27 -10.3 3.18 C-11.19 3.12 -12.08 3.06 -13 3 C-8.8 -0.59 -5.36 -0.88 0 0 Z " fill="#F4B8D3" transform="translate(240,214)"/>
<path d="M0 0 C3.31 1.87 6.08 3.78 8.5 6.75 C5.53 6.42 2.56 6.09 -0.5 5.75 C-1 4.26 -1 4.26 -1.5 2.75 C-3.15 2.75 -4.8 2.75 -6.5 2.75 C-6.17 1.76 -5.84 0.77 -5.5 -0.25 C-6.94 -0.16 -8.38 -0.05 -9.81 0.06 C-10.61 0.12 -11.41 0.18 -12.24 0.24 C-14.91 0.84 -15.65 1.82 -17.5 3.75 C-18.63 3.87 -19.77 4 -20.94 4.12 C-24.66 4.4 -24.66 4.4 -26.81 7.31 C-27.37 8.12 -27.93 8.92 -28.5 9.75 C-29.16 9.75 -29.82 9.75 -30.5 9.75 C-30.83 12.06 -31.16 14.37 -31.5 16.75 C-32.16 16.75 -32.82 16.75 -33.5 16.75 C-33.14 10.88 -31.79 6.91 -27.5 2.75 C-19.05 -3.4 -9.48 -4.49 0 0 Z " fill="#FAD1F6" transform="translate(191.5,173.25)"/>
<path d="M0 0 C2.38 0.36 2.38 0.36 4.95 2.17 C8.07 6.92 7.76 11.87 7.38 17.36 C6.38 20.48 6.38 20.48 5.38 22.36 C3.9 17.75 4.51 13.13 4.74 8.36 C4.68 5.3 4.68 5.3 2.61 3.47 C-0.51 1.91 -3.19 2.16 -6.62 2.36 C-9.92 8.96 -10.62 14.21 -8.62 21.36 C-8.29 22.35 -7.96 23.34 -7.62 24.36 C-4.32 24.36 -1.02 24.36 2.38 24.36 C1.72 25.35 1.06 26.34 0.38 27.36 C-2.78 27.83 -4.61 28.09 -7.62 27.36 C-10.72 24.96 -12.38 22.07 -13.62 18.36 C-14.05 11.85 -13.45 7.01 -9.32 1.69 C-6.43 -0.56 -3.53 -0.1 0 0 Z " fill="#FABED9" transform="translate(295.6171875,263.640625)"/>
<path d="M0 0 C4.63 4.13 6.48 8.43 7.26 14.57 C7.5 21.1 6.83 25.32 2.88 30.56 C-0.24 32.12 -3.73 32.13 -7.12 31.56 C-8.12 30.57 -9.1 29.58 -10.12 28.56 C-6.5 28.89 -2.87 29.22 0.88 29.56 C0.88 26.92 0.88 24.28 0.88 21.56 C1.53 22.22 2.19 22.88 2.88 23.56 C3.21 22.9 3.53 22.24 3.88 21.56 C4.53 21.56 5.19 21.56 5.88 21.56 C4.86 16.08 3.72 10.84 1.88 5.56 C1.88 4.9 1.88 4.24 1.88 3.56 C-1.13 2.56 -3.66 2.26 -6.81 2 C-7.81 1.92 -8.8 1.83 -9.82 1.75 C-10.96 1.66 -10.96 1.66 -12.12 1.56 C-12.12 0.9 -12.12 0.24 -12.12 -0.44 C-7.51 -1.98 -4.47 -2.06 0 0 Z " fill="#F7BEEF" transform="translate(195.125,139.4375)"/>
<path d="M0 0 C2.64 0 5.28 0 8 0 C5.76 2.57 4.34 3.4 1 4 C-1.39 4.13 -3.79 4.23 -6.19 4.31 C-15.48 4.81 -21.76 7.94 -29.37 13.05 C-31 14 -31 14 -33 14 C-33 13.34 -33 12.68 -33 12 C-32.01 11.67 -31.02 11.34 -30 11 C-29.5 10.48 -29.01 9.97 -28.5 9.44 C-27 8 -27 8 -24 8 C-23.67 7.01 -23.34 6.02 -23 5 C-16.21 1.06 -7.6 1.31 0 1 C0 0.67 0 0.34 0 0 Z " fill="#FCCFE1" transform="translate(207,214)"/>
<path d="M0 0 C0.33 0.99 0.66 1.98 1 3 C0.01 3.33 -0.98 3.66 -2 4 C-5.58 9.02 -4.46 16.17 -4 22 C-3.23 24.56 -2.22 26.61 -1 29 C-1.33 29.99 -1.66 30.98 -2 32 C-2.33 31.01 -2.66 30.02 -3 29 C-3.66 29 -4.32 29 -5 29 C-8.01 22.98 -10.29 16.44 -8.34 9.72 C-6.36 5.41 -4 2.67 0 0 Z " fill="#F4B6E8" transform="translate(156,138)"/>
<path d="M0 0 C1.03 2.79 1.05 3.87 0.06 6.75 C-0.29 7.49 -0.64 8.24 -1 9 C-0.34 9 0.32 9 1 9 C1.63 13.04 2.12 16.91 2 21 C2.66 21.33 3.32 21.66 4 22 C4 23.65 4 25.3 4 27 C-0.82 24.13 -2.26 20.95 -3.63 15.74 C-4.4 9.98 -3.2 4.8 0 0 Z " fill="#FCDEFC" transform="translate(181,141)"/>
<path d="M0 0 C5.69 1.63 8.43 5.36 11.38 10.31 C12.46 14.98 12.39 19.76 9.81 23.91 C8.44 25.56 8.44 25.56 6 28 C5.67 27.01 5.34 26.02 5 25 C5.66 24.01 6.32 23.02 7 22 C7.66 22 8.32 22 9 22 C8.34 19.36 7.68 16.72 7 14 C7.66 14 8.32 14 9 14 C9 12.68 9 11.36 9 10 C8.34 10 7.68 10 7 10 C7 9.34 7 8.68 7 8 C6.01 8 5.02 8 4 8 C4 6.68 4 5.36 4 4 C2.68 3.67 1.36 3.34 0 3 C0 2.01 0 1.02 0 0 Z " fill="#FBC4EB" transform="translate(210,186)"/>
<path d="M0 0 C3.96 0.33 7.92 0.66 12 1 C12 1.66 12 2.32 12 3 C12.99 3 13.98 3 15 3 C15 3.66 15 4.32 15 5 C15.66 5 16.32 5 17 5 C17.36 5.83 17.36 5.83 17.73 6.68 C18.07 7.4 18.4 8.13 18.75 8.88 C19.24 9.95 19.24 9.95 19.73 11.05 C21.23 13.36 22.55 13.86 25 15 C26.25 17.62 26.25 17.62 27 20 C23.06 18.46 21.19 15.99 18.56 12.75 C13.15 6.59 7.73 3.87 0 1 C0 0.67 0 0.34 0 0 Z " fill="#FCE1BD" transform="translate(228,278)"/>
<path d="M0 0 C1.06 3.4 0.98 6.34 0.81 9.88 C0.75 15.37 1.35 17.92 5 22 C6.91 24.36 6.91 24.36 10.26 24.2 C11.53 24.17 12.81 24.15 14.12 24.12 C15.41 24.11 16.69 24.09 18.01 24.07 C19.49 24.04 19.49 24.04 21 24 C18.27 27.02 17.41 27.93 13.25 28.69 C8.63 28.43 5.94 26.28 2.7 23.13 C-1.52 17.85 -2.64 11.65 -2 5 C-1 2.06 -1 2.06 0 0 Z " fill="#F5B3F0" transform="translate(131,170)"/>
<path d="M0 0 C0 0.66 0 1.32 0 2 C-0.66 2 -1.32 2 -2 2 C-2.33 3.32 -2.66 4.64 -3 6 C-3.99 6 -4.98 6 -6 6 C-6.9 11.23 -7.56 15.11 -5 20 C-2.67 21.2 -2.67 21.2 0 22 C2.81 24 2.81 24 5 26 C5 26.66 5 27.32 5 28 C-0.77 26.39 -4.37 24.28 -7.88 19.38 C-9.43 14.7 -9.19 10.76 -8 6 C-4.2 0 -4.2 0 0 0 Z " fill="#FCBDB5" transform="translate(223,250)"/>
<path d="M0 0 C0.33 0 0.66 0 1 0 C1 5.28 1 10.56 1 16 C0.34 16 -0.32 16 -1 16 C-1.06 16.96 -1.12 17.93 -1.18 18.92 C-1.31 20.82 -1.31 20.82 -1.44 22.75 C-1.52 24 -1.6 25.26 -1.68 26.55 C-1.93 29.18 -2.24 31.48 -3 34 C-7.28 25.71 -4.59 17.69 -1.97 9.33 C-1.06 6.22 -0.46 3.2 0 0 Z " fill="#F9C9E6" transform="translate(157,190)"/>
<path d="M0 0 C1.32 0 2.64 0 4 0 C4 0.66 4 1.32 4 2 C7.63 1.67 11.26 1.34 15 1 C12 3 12 3 10 4 C12.31 5.32 14.62 6.64 17 8 C16.01 8.5 16.01 8.5 15 9 C13.77 8.4 12.56 7.74 11.38 7.06 C4.61 3.83 -2.69 4.68 -10 5 C-7.8 2.8 -6.82 2.54 -3.88 1.88 C-2.6 1.59 -1.32 1.3 0 1 C0 0.67 0 0.34 0 0 Z " fill="#FA9AC0" transform="translate(254,235)"/>
<path d="M0 0 C3.16 3.16 3.48 3.53 3.62 7.69 C3.49 13.06 1.46 15.71 -2.18 19.5 C-4 21 -4 21 -7 22 C-7 21.34 -7 20.68 -7 20 C-6.34 20 -5.68 20 -5 20 C-5 19.34 -5 18.68 -5 18 C-5.66 18 -6.32 18 -7 18 C-7 17.34 -7 16.68 -7 16 C-5.02 16 -3.04 16 -1 16 C-1 14.68 -1 13.36 -1 12 C-0.34 11.67 0.32 11.34 1 11 C0.67 7.37 0.34 3.74 0 0 Z " fill="#FBC8E3" transform="translate(276,214)"/>
<path d="M0 0 C2 1 2 1 3.11 3.14 C4.14 6.45 4.27 9.23 4.25 12.69 C4.26 13.83 4.26 14.96 4.27 16.14 C4 19 4 19 2 21 C1.34 14.07 0.68 7.14 0 0 Z " fill="#FABCF0" transform="translate(150,172)"/>
<path d="M0 0 C3.99 2.39 4.81 4.58 6 9 C6.27 12.25 6.27 12.25 6.25 15.56 C6.26 16.66 6.26 17.75 6.27 18.88 C6 21.98 5.32 24.2 4 27 C3 24 3 24 3.44 21.88 C4.54 16.25 5.03 11.7 2 6.69 C1.34 5.8 0.68 4.91 0 4 C0 2.68 0 1.36 0 0 Z " fill="#F3B7E9" transform="translate(167,141)"/>
<path d="M0 0 C0 3 0 3 -1.56 4.62 C-4.8 6.45 -7.29 6.87 -11 7 C-13.95 5.65 -15.54 4.91 -17 2 C-16.36 2.16 -15.72 2.33 -15.06 2.5 C-12.45 2.93 -10.01 3.16 -7.38 3.25 C-6.62 3.28 -5.86 3.3 -5.09 3.33 C-2.49 2.92 -1.64 1.99 0 0 Z " fill="#FBC2E4" transform="translate(297,253)"/>
<path d="M0 0 C0.33 0 0.66 0 1 0 C1.1 1.05 1.21 2.1 1.31 3.19 C1.98 6.9 2.79 8.99 5 12 C5.66 12.33 6.32 12.66 7 13 C7 14.65 7 16.3 7 18 C2.02 15.04 0.92 11.74 -0.62 6.44 C-1.01 3.92 -0.81 2.39 0 0 Z " fill="#F6B7F0" transform="translate(178,150)"/>
<path d="M0 0 C-2.43 1.62 -4.82 3.04 -7.38 4.44 C-9.94 5.85 -12.45 7.28 -14.94 8.81 C-17 10 -17 10 -19 10 C-19 9.34 -19 8.68 -19 8 C-18.01 7.67 -17.02 7.34 -16 7 C-15.5 6.48 -15.01 5.97 -14.5 5.44 C-13 4 -13 4 -10 4 C-9.67 3.01 -9.34 2.02 -9 1 C-5.8 -0.07 -3.34 -0.07 0 0 Z " fill="#F9B0C1" transform="translate(193,218)"/>
<path d="M0 0 C2.44 1.5 2.44 1.5 4 3 C4 3.66 4 4.32 4 5 C2.06 4.62 2.06 4.62 0 4 C-0.33 3.34 -0.66 2.68 -1 2 C-2.42 1.97 -3.83 1.95 -5.25 1.94 C-6.04 1.93 -6.83 1.91 -7.64 1.9 C-9.91 2 -11.83 2.37 -14 3 C-9.15 -2.18 -6.7 -2.35 0 0 Z " fill="#EFBBF2" transform="translate(146,167)"/>
<path d="M0 0 C0.99 0.5 0.99 0.5 2 1 C3.67 6 3.63 11.06 2 16.06 C1.67 16.7 1.34 17.34 1 18 C0.67 18 0.34 18 0 18 C0 12.06 0 6.12 0 0 Z " fill="#F6BFE6" transform="translate(298,235)"/>
<path d="M0 0 C0.66 0.99 1.32 1.98 2 3 C0.85 2.81 -0.31 2.63 -1.5 2.44 C-5.86 1.88 -9.67 2.3 -14 3 C-9.87 -1.75 -5.96 -1.32 0 0 Z " fill="#F09BE1" transform="translate(274,211)"/>
<path d="M0 0 C3.99 1.37 6.88 3.15 10 6 C10 6.66 10 7.32 10 8 C5.6 6.8 2.9 5.57 0 2 C0 1.34 0 0.68 0 0 Z " fill="#FCE3C0" transform="translate(218,270)"/>
<path d="M0 0 C0 2.62 -0.31 4.51 -1 7 C-1.66 7 -2.32 7 -3 7 C-3.33 9.31 -3.66 11.62 -4 14 C-4.66 14 -5.32 14 -6 14 C-5.62 7.84 -3.84 4.83 0 0 Z " fill="#FAB1F0" transform="translate(164,176)"/>
<path d="M0 0 C2.97 0.5 2.97 0.5 6 1 C6 1.66 6 2.32 6 3 C8.64 3.33 11.28 3.66 14 4 C13.67 4.66 13.34 5.32 13 6 C3.41 4.44 3.41 4.44 0 0 Z " fill="#FDAFCF" transform="translate(155,224)"/>
<path d="M0 0 C1.17 -0.03 1.17 -0.03 2.37 -0.05 C4.56 0.31 4.56 0.31 7.56 3.31 C0.63 2.82 0.63 2.82 -6.44 2.31 C-4.02 -0.1 -3.31 0.02 0 0 Z " fill="#FCB5F4" transform="translate(213.4375,156.6875)"/>
<path d="M0 0 C0.66 0.33 1.32 0.66 2 1 C1.36 1.1 0.72 1.21 0.06 1.31 C-0.62 1.54 -1.3 1.77 -2 2 C-2.33 2.99 -2.66 3.98 -3 5 C-6.3 4.67 -9.6 4.34 -13 4 C-13 3.67 -13 3.34 -13 3 C-12.4 2.95 -11.79 2.9 -11.17 2.85 C-10.37 2.78 -9.57 2.7 -8.75 2.62 C-7.57 2.52 -7.57 2.52 -6.36 2.41 C-3.96 2.11 -3.96 2.11 -1.83 0.9 C-1.22 0.6 -0.62 0.31 0 0 Z " fill="#FDDDE3" transform="translate(176,224)"/>
<path d="M0 0 C3.35 2.23 4.82 3.26 5.81 7.25 C5.87 8.16 5.94 9.06 6 10 C2.66 8.11 2.02 7.06 0.75 3.31 C0.5 2.22 0.25 1.13 0 0 Z " fill="#FDD0E0" transform="translate(271,244)"/>
<path d="M0 0 C2.97 1.65 5.94 3.3 9 5 C8.67 5.66 8.34 6.32 8 7 C6.35 6.67 4.7 6.34 3 6 C3 5.01 3 4.02 3 3 C2.01 3 1.02 3 0 3 C0 2.01 0 1.02 0 0 Z " fill="#F8C4F7" transform="translate(201,180)"/>
<path d="M0 0 C0 1.65 0 3.3 0 5 C-0.99 5.33 -1.98 5.66 -3 6 C-3.33 6.99 -3.66 7.98 -4 9 C-4.37 3.48 -4.37 3.48 -2.56 1.12 C-1 0 -1 0 0 0 Z " fill="#FAC7D7" transform="translate(227,217)"/>
</svg>
